HIERARCHY
ROOT root
{
	OFFSET	0	13.1	24.9
	CHANNELS 6  Xposition Yposition Zposition Xrotation Yrotation Zrotation
	JOINT spine_1
	{
		OFFSET	0	9.99999	0
		CHANNELS 3  Xrotation Yrotation Zrotation
		JOINT spine_2
		{
			OFFSET	0	112	-10
			CHANNELS 3  Xrotation Yrotation Zrotation
			JOINT spine_3
			{
				OFFSET	0	206.5	19.3
				CHANNELS 3  Xrotation Yrotation Zrotation
				JOINT spine_4
				{
					OFFSET	0	110.4	14.6
					CHANNELS 3  Xrotation Yrotation Zrotation
					JOINT neck_1
					{
						OFFSET	0	71.8	-50.3
						CHANNELS 3  Xrotation Yrotation Zrotation
						JOINT neck_2
						{
							OFFSET	0	86.2	-25.8
							CHANNELS 3  Xrotation Yrotation Zrotation
							JOINT head_ee
							{
								OFFSET	0	179.8	-8.7
								CHANNELS 3  Xrotation Yrotation Zrotation
								End Site
								{
									OFFSET	1	0	0
								}
							}
						}
					}
					JOINT left_clavicle
					{
						OFFSET	-43.2	22.4	-70.8
						CHANNELS 3  Xrotation Yrotation Zrotation
						JOINT left_shoulder
						{
							OFFSET	-93.9	-5.79999	48.7
							CHANNELS 3  Xrotation Yrotation Zrotation
							JOINT left_elbow
							{
								OFFSET	-291.4	-30.8	15.2
								CHANNELS 3  Xrotation Yrotation Zrotation
								JOINT left_lowarm_twist
								{
									OFFSET	-110.7	-3.89999	13.6
									CHANNELS 3  Xrotation Yrotation Zrotation
									JOINT left_hand
									{
										OFFSET	-110.7	-3.89999	13.6
										CHANNELS 3  Xrotation Yrotation Zrotation
										JOINT left_ee
										{
											OFFSET	-80.8	-5.10001	12.1
											CHANNELS 3  Xrotation Yrotation Zrotation
											End Site
											{
												OFFSET	1	0	0
											}
										}
									}
								}
							}
						}
					}
					JOINT right_clavicle
					{
						OFFSET	43.2	22.4	-70.8
						CHANNELS 3  Xrotation Yrotation Zrotation
						JOINT right_shoulder
						{
							OFFSET	93.9	-5.79999	48.7
							CHANNELS 3  Xrotation Yrotation Zrotation
							JOINT right_elbow
							{
								OFFSET	291.4	-30.8	15.2
								CHANNELS 3  Xrotation Yrotation Zrotation
								JOINT right_lowarm_twist
								{
									OFFSET	110.7	-3.89999	13.6
									CHANNELS 3  Xrotation Yrotation Zrotation
									JOINT right_hand
									{
										OFFSET	110.7	-3.89999	13.6
										CHANNELS 3  Xrotation Yrotation Zrotation
										JOINT right_ee
										{
											OFFSET	80.8	-5.10001	12.1
											CHANNELS 3  Xrotation Yrotation Zrotation
											End Site
											{
												OFFSET	1	0	0
											}
										}
									}
								}
							}
						}
					}
				}
			}
		}
	}
	JOINT left_hip
	{
		OFFSET	-82.8	-127.5	0.300001
		CHANNELS 3  Xrotation Yrotation Zrotation
		JOINT left_knee
		{
			OFFSET	-28.2	-396.7	2.2
			CHANNELS 3  Xrotation Yrotation Zrotation
			JOINT left_ankle
			{
				OFFSET	-11.7	-411.3	35.4
				CHANNELS 3  Xrotation Yrotation Zrotation
				JOINT left_toes
				{
					OFFSET	0	-60	-88.6
					CHANNELS 3  Xrotation Yrotation Zrotation
					JOINT left_foot_ee
					{
						OFFSET	-22.5	-16.5	-42.2
						CHANNELS 3  Xrotation Yrotation Zrotation
						End Site
						{
							OFFSET	1	0	0
						}
					}
				}
			}
		}
	}
	JOINT right_hip
	{
		OFFSET	82.8	-127.5	0.300001
		CHANNELS 3  Xrotation Yrotation Zrotation
		JOINT right_knee
		{
			OFFSET	28.2	-396.7	2.2
			CHANNELS 3  Xrotation Yrotation Zrotation
			JOINT right_ankle
			{
				OFFSET	11.7	-411.3	35.4
				CHANNELS 3  Xrotation Yrotation Zrotation
				JOINT right_toes
				{
					OFFSET	0	-60	-88.6
					CHANNELS 3  Xrotation Yrotation Zrotation
					JOINT right_foot_ee
					{
						OFFSET	22.5	-16.5	-42.2
						CHANNELS 3  Xrotation Yrotation Zrotation
						End Site
						{
							OFFSET	1	0	0
						}
					}
				}
			}
		}
	}
}
MOTION
Frames: 12
Frame Time: 0.02
829.922748951 582.667 -1688.31491049 -123.747634826 59.5597013903 145.256255227 11.2413 -0.722644 -4.58591 11.2529 -0.429686 -4.62249 11.2571 -0.360253 -4.62841 11.2289 -1.08596 -4.51384 -15.3168 -13.9354 4.9928 -16.1283 -29.5708 -0.28529 -0.0 0.0 -0.0 13.6402 -24.1987 27.3679 -16.7698 32.2568 68.3801 0.445211 -12.4374 0.0485125 82.6339 -4.14551 -8.75121 -7.86939 20.0585 -43.4094 -0.0 0.0 -0.0 -0.772635 -15.2192 -0.556992 29.7274 -75.305 -23.7898 0.527714 14.6503 -0.0678374 82.1325 4.08659 8.72538 -0.785557 -16.8061 -2.0337 0.0 0.0 0.0 46.3442 7.62746 -16.0905 -17.0621 0.319045 2.58924 31.4166 -26.2806 -4.76892 -12.8095 0.0 0.0 -0.0 0.0 -0.0 40.9716 4.98713 -16.9958 -33.4309 0.102561 -5.05742 38.6022 -25.026 5.03242 31.6791 -0.0 -0.0 0.0 0.0 0.0 
819.680077723 582.183 -1682.81356663 -128.699476227 58.2133739862 151.298792559 11.0994 -0.784884 -4.77407 11.112 -0.479868 -4.81421 11.1197 -0.396189 -4.8218 11.0892 -1.15189 -4.6992 -15.1284 -14.2551 5.57652 -15.964 -30.5259 0.188488 -0.0 0.0 -0.0 13.4723 -24.756 26.9152 -17.2771 33.7603 68.7561 0.394869 -11.0679 0.0382578 82.5334 -4.13369 -8.74608 -8.57244 23.9229 -44.8291 -0.0 0.0 -0.0 -0.735583 -15.0383 -0.591958 33.219 -78.1277 -20.5478 0.532557 14.7788 -0.0690675 81.8144 4.04932 8.70872 -0.340609 -9.79306 -1.87167 0.0 0.0 0.0 47.8809 12.1068 -17.3257 -17.3476 0.317783 2.63304 33.6329 -24.2523 -4.91708 -12.0785 0.0 0.0 -0.0 0.0 -0.0 42.6794 8.76936 -19.711 -23.3808 -0.240196 -3.55509 34.8024 -27.092 4.70403 35.3653 -0.0 -0.0 0.0 0.0 0.0 
809.901743217 580.53 -1679.04594967 -132.377529605 56.8784114261 155.696729934 10.9533 -0.87101 -5.01632 10.9672 -0.550463 -5.06142 10.9804 -0.45046 -5.07127 10.9466 -1.24474 -4.93707 -14.2048 -15.431 6.40998 -15.0767 -33.288 0.798254 -0.0 0.0 -0.0 13.1664 -25.1258 26.1627 -16.5742 33.9707 69.1936 0.348081 -9.78346 0.0297905 82.4478 -4.12362 -8.74168 -9.45718 27.8771 -47.034 -0.0 0.0 -0.0 -1.17675 -14.6664 0.168858 40.7228 -81.1337 -13.4506 0.543728 15.0749 -0.0719451 81.4905 4.01147 8.69155 -0.249572 -5.7202 -0.755499 0.0 0.0 0.0 48.5354 13.6979 -17.9113 -17.8768 0.314868 2.71418 35.2931 -24.1803 -5.09131 -11.2226 0.0 0.0 -0.0 0.0 -0.0 41.02 5.87374 -18.809 -21.4877 -0.274994 -3.26669 37.1429 -25.9715 4.91524 36.5154 -0.0 -0.0 0.0 0.0 0.0 
801.988578618 582.759 -1676.640538 -130.271256505 57.3759267595 152.967831283 10.6965 -1.09427 -5.35706 10.7121 -0.751683 -5.41559 10.7438 -0.62319 -5.43183 10.7056 -1.47204 -5.26604 -12.9364 -14.8022 8.0773 -13.5317 -33.1607 3.06137 -0.0 0.0 -0.0 13.8227 -25.6658 27.6289 -12.7768 36.4795 68.8656 0.299957 -8.45193 0.0221642 83.169 -4.20866 -8.77822 -10.4272 30.4128 -51.8159 -0.0 0.0 -0.0 -2.76269 -13.3401 2.9801 43.5903 -84.2225 -12.7989 0.610751 16.8332 -0.0903697 80.996 3.95386 8.66491 -0.7371 -6.51787 2.0892 0.0 0.0 0.0 49.3097 16.6847 -17.5514 -17.3512 0.317766 2.63358 38.1451 -20.738 -5.21427 -8.73392 0.0 0.0 -0.0 0.0 -0.0 38.0376 4.72037 -18.784 -19.2973 -0.303337 -2.93182 41.9725 -21.1121 5.23529 39.2184 -0.0 -0.0 0.0 0.0 0.0 
801.922475249 582.759 -1681.098634 -128.970611291 58.0562420696 151.429409423 10.6965 -1.09427 -5.35706 10.7121 -0.751683 -5.41559 10.7438 -0.62319 -5.43183 10.7056 -1.47204 -5.26604 -12.9364 -14.8022 8.0773 -13.5317 -33.1607 3.06137 -0.0 0.0 -0.0 13.8227 -25.6658 27.6289 -12.7768 36.4795 68.8656 0.299957 -8.45193 0.0221642 83.169 -4.20866 -8.77822 -10.4272 30.4128 -51.8159 -0.0 0.0 -0.0 -2.76269 -13.3401 2.9801 43.5903 -84.2225 -12.7989 0.610751 16.8332 -0.0903697 80.996 3.95386 8.66491 -0.7371 -6.51787 2.0892 0.0 0.0 0.0 49.3097 16.6847 -17.5514 -17.3512 0.317766 2.63358 38.1451 -20.738 -5.21427 -8.73392 0.0 0.0 -0.0 0.0 -0.0 38.0376 4.72037 -18.784 -19.2973 -0.303337 -2.93182 41.9725 -21.1121 5.23529 39.2184 -0.0 -0.0 0.0 0.0 0.0 
801.941968874 582.759 -1685.74899358 -127.550412626 58.7452874359 149.762051308 10.6965 -1.09427 -5.35706 10.7121 -0.751683 -5.41559 10.7438 -0.62319 -5.43183 10.7056 -1.47204 -5.26604 -12.9364 -14.8022 8.0773 -13.5317 -33.1607 3.06137 -0.0 0.0 -0.0 13.8227 -25.6658 27.6289 -12.7768 36.4795 68.8656 0.299957 -8.45193 0.0221642 83.169 -4.20866 -8.77822 -10.4272 30.4128 -51.8159 -0.0 0.0 -0.0 -2.76269 -13.3401 2.9801 43.5903 -84.2225 -12.7989 0.610751 16.8332 -0.0903697 80.996 3.95386 8.66491 -0.7371 -6.51787 2.0892 0.0 0.0 0.0 49.3097 16.6847 -17.5514 -17.3512 0.317766 2.63358 38.1451 -20.738 -5.21427 -8.73392 0.0 0.0 -0.0 0.0 -0.0 38.0376 4.72037 -18.784 -19.2973 -0.303337 -2.93182 41.9725 -21.1121 5.23529 39.2184 -0.0 -0.0 0.0 0.0 0.0 
802.006622034 582.759 -1688.90393822 -126.548631254 59.2001902523 148.593025341 10.6965 -1.09427 -5.35706 10.7121 -0.751683 -5.41559 10.7438 -0.62319 -5.43183 10.7056 -1.47204 -5.26604 -12.9364 -14.8022 8.0773 -13.5317 -33.1607 3.06137 -0.0 0.0 -0.0 13.8227 -25.6658 27.6289 -12.7768 36.4795 68.8656 0.299957 -8.45193 0.0221642 83.169 -4.20866 -8.77822 -10.4272 30.4128 -51.8159 -0.0 0.0 -0.0 -2.76269 -13.3401 2.9801 43.5903 -84.2225 -12.7989 0.610751 16.8332 -0.0903697 80.996 3.95386 8.66491 -0.7371 -6.51787 2.0892 0.0 0.0 0.0 49.3097 16.6847 -17.5514 -17.3512 0.317766 2.63358 38.1451 -20.738 -5.21427 -8.73392 0.0 0.0 -0.0 0.0 -0.0 38.0376 4.72037 -18.784 -19.2973 -0.303337 -2.93182 41.9725 -21.1121 5.23529 39.2184 -0.0 -0.0 0.0 0.0 0.0 
802.051932786 582.759 -1690.40333201 -126.061394689 59.412687757 148.02641384 10.6965 -1.09427 -5.35706 10.7121 -0.751683 -5.41559 10.7438 -0.62319 -5.43183 10.7056 -1.47204 -5.26604 -12.9364 -14.8022 8.0773 -13.5317 -33.1607 3.06137 -0.0 0.0 -0.0 13.8227 -25.6658 27.6289 -12.7768 36.4795 68.8656 0.299957 -8.45193 0.0221642 83.169 -4.20866 -8.77822 -10.4272 30.4128 -51.8159 -0.0 0.0 -0.0 -2.76269 -13.3401 2.9801 43.5903 -84.2225 -12.7989 0.610751 16.8332 -0.0903697 80.996 3.95386 8.66491 -0.7371 -6.51787 2.0892 0.0 0.0 0.0 49.3097 16.6847 -17.5514 -17.3512 0.317766 2.63358 38.1451 -20.738 -5.21427 -8.73392 0.0 0.0 -0.0 0.0 -0.0 38.0376 4.72037 -18.784 -19.2973 -0.303337 -2.93182 41.9725 -21.1121 5.23529 39.2184 -0.0 -0.0 0.0 0.0 0.0 
802.084613482 582.759 -1691.32935715 -125.756838094 59.5427093294 147.672867291 10.6965 -1.09427 -5.35706 10.7121 -0.751683 -5.41559 10.7438 -0.62319 -5.43183 10.7056 -1.47204 -5.26604 -12.9364 -14.8022 8.0773 -13.5317 -33.1607 3.06137 -0.0 0.0 -0.0 13.8227 -25.6658 27.6289 -12.7768 36.4795 68.8656 0.299957 -8.45193 0.0221642 83.169 -4.20866 -8.77822 -10.4272 30.4128 -51.8159 -0.0 0.0 -0.0 -2.76269 -13.3401 2.9801 43.5903 -84.2225 -12.7989 0.610751 16.8332 -0.0903697 80.996 3.95386 8.66491 -0.7371 -6.51787 2.0892 0.0 0.0 0.0 49.3097 16.6847 -17.5514 -17.3512 0.317766 2.63358 38.1451 -20.738 -5.21427 -8.73392 0.0 0.0 -0.0 0.0 -0.0 38.0376 4.72037 -18.784 -19.2973 -0.303337 -2.93182 41.9725 -21.1121 5.23529 39.2184 -0.0 -0.0 0.0 0.0 0.0 
802.152308253 582.759 -1692.99226856 -125.202878485 59.7738237048 147.030991114 10.6965 -1.09427 -5.35706 10.7121 -0.751683 -5.41559 10.7438 -0.62319 -5.43183 10.7056 -1.47204 -5.26604 -12.9364 -14.8022 8.0773 -13.5317 -33.1607 3.06137 -0.0 0.0 -0.0 13.8227 -25.6658 27.6289 -12.7768 36.4795 68.8656 0.299957 -8.45193 0.0221642 83.169 -4.20866 -8.77822 -10.4272 30.4128 -51.8159 -0.0 0.0 -0.0 -2.76269 -13.3401 2.9801 43.5903 -84.2225 -12.7989 0.610751 16.8332 -0.0903697 80.996 3.95386 8.66491 -0.7371 -6.51787 2.0892 0.0 0.0 0.0 49.3097 16.6847 -17.5514 -17.3512 0.317766 2.63358 38.1451 -20.738 -5.21427 -8.73392 0.0 0.0 -0.0 0.0 -0.0 38.0376 4.72037 -18.784 -19.2973 -0.303337 -2.93182 41.9725 -21.1121 5.23529 39.2184 -0.0 -0.0 0.0 0.0 0.0 
802.155004844 582.759 -1693.05311627 -125.182435541 59.7822219964 147.00733254 10.6965 -1.09427 -5.35706 10.7121 -0.751683 -5.41559 10.7438 -0.62319 -5.43183 10.7056 -1.47204 -5.26604 -12.9364 -14.8022 8.0773 -13.5317 -33.1607 3.06137 -0.0 0.0 -0.0 13.8227 -25.6658 27.6289 -12.7768 36.4795 68.8656 0.299957 -8.45193 0.0221642 83.169 -4.20866 -8.77822 -10.4272 30.4128 -51.8159 -0.0 0.0 -0.0 -2.76269 -13.3401 2.9801 43.5903 -84.2225 -12.7989 0.610751 16.8332 -0.0903697 80.996 3.95386 8.66491 -0.7371 -6.51787 2.0892 0.0 0.0 0.0 49.3097 16.6847 -17.5514 -17.3512 0.317766 2.63358 38.1451 -20.738 -5.21427 -8.73392 0.0 0.0 -0.0 0.0 -0.0 38.0376 4.72037 -18.784 -19.2973 -0.303337 -2.93182 41.9725 -21.1121 5.23529 39.2184 -0.0 -0.0 0.0 0.0 0.0 
802.30954626 582.759 -1696.0942751 -124.144957867 60.1966059805 145.80924744 10.6965 -1.09427 -5.35706 10.7121 -0.751683 -5.41559 10.7438 -0.62319 -5.43183 10.7056 -1.47204 -5.26604 -12.9364 -14.8022 8.0773 -13.5317 -33.1607 3.06137 -0.0 0.0 -0.0 13.8227 -25.6658 27.6289 -12.7768 36.4795 68.8656 0.299957 -8.45193 0.0221642 83.169 -4.20866 -8.77822 -10.4272 30.4128 -51.8159 -0.0 0.0 -0.0 -2.76269 -13.3401 2.9801 43.5903 -84.2225 -12.7989 0.610751 16.8332 -0.0903697 80.996 3.95386 8.66491 -0.7371 -6.51787 2.0892 0.0 0.0 0.0 49.3097 16.6847 -17.5514 -17.3512 0.317766 2.63358 38.1451 -20.738 -5.21427 -8.73392 0.0 0.0 -0.0 0.0 -0.0 38.0376 4.72037 -18.784 -19.2973 -0.303337 -2.93182 41.9725 -21.1121 5.23529 39.2184 -0.0 -0.0 0.0 0.0 0.0 
